<mxfile host="Electron" agent="Mozilla/5.0 (Windows NT 10.0; Win64; x64) AppleWebKit/537.36 (KHTML, like Gecko) draw.io/24.7.8 Chrome/128.0.6613.36 Electron/32.0.1 Safari/537.36" version="24.7.8">
  <diagram name="Page-1" id="sA4Qd_rMw4weMCcBGitS">
    <mxGraphModel dx="2082" dy="1187" grid="1" gridSize="10" guides="1" tooltips="1" connect="1" arrows="1" fold="1" page="1" pageScale="1" pageWidth="850" pageHeight="1100" math="0" shadow="0">
      <root>
        <mxCell id="0" />
        <mxCell id="1" parent="0" />
        <mxCell id="kbqDJfVuW1tMjwY6HwHi-7" value="@InjectMock" style="edgeStyle=orthogonalEdgeStyle;rounded=0;orthogonalLoop=1;jettySize=auto;html=1;entryX=0;entryY=0.5;entryDx=0;entryDy=0;fontStyle=1;fontSize=13;" edge="1" parent="1" source="kbqDJfVuW1tMjwY6HwHi-3" target="kbqDJfVuW1tMjwY6HwHi-5">
          <mxGeometry relative="1" as="geometry">
            <Array as="points">
              <mxPoint x="-125" y="810" />
            </Array>
          </mxGeometry>
        </mxCell>
        <UserObject label="&lt;div style=&quot;background-color:#1e1e1e;color:#d4d4d4&quot;&gt;&lt;pre style=&quot;font-family:&#39;JetBrains Mono&#39;,monospace;font-size:9.8pt;&quot;&gt;&lt;span style=&quot;color:#569cd6;&quot;&gt;package &lt;/span&gt;&lt;span style=&quot;color:#4ec9b0;&quot;&gt;com.example.models&lt;/span&gt;;&lt;br&gt;&lt;br&gt;&lt;span style=&quot;color:#569cd6;&quot;&gt;public class &lt;/span&gt;&lt;span style=&quot;color:#4ec9b0;&quot;&gt;ClassA &lt;/span&gt;{&lt;br&gt;    &lt;span style=&quot;color:#569cd6;&quot;&gt;private &lt;/span&gt;&lt;span style=&quot;color:#4ec9b0;&quot;&gt;ClassB &lt;/span&gt;&lt;span style=&quot;color:#9cdcfe;&quot;&gt;classB&lt;/span&gt;;&lt;br&gt;    &lt;span style=&quot;color:#569cd6;&quot;&gt;private int &lt;/span&gt;&lt;span style=&quot;color:#9cdcfe;&quot;&gt;y &lt;/span&gt;= &lt;span style=&quot;color:#b4cda8;&quot;&gt;5&lt;/span&gt;;&lt;br&gt;&lt;br&gt;    &lt;span style=&quot;color:#569cd6;&quot;&gt;public &lt;/span&gt;&lt;span style=&quot;color:#dcdcaa;&quot;&gt;ClassA&lt;/span&gt;(&lt;span style=&quot;color:#4ec9b0;&quot;&gt;ClassB &lt;/span&gt;&lt;span style=&quot;color:#94dbfd;&quot;&gt;classB&lt;/span&gt;) {&lt;br&gt;        &lt;span style=&quot;color:#569cd6;&quot;&gt;this&lt;/span&gt;.&lt;span style=&quot;color:#9cdcfe;&quot;&gt;classB &lt;/span&gt;= &lt;span style=&quot;color:#94dbfd;&quot;&gt;classB&lt;/span&gt;;&lt;br&gt;    }&lt;br&gt;&lt;br&gt;    &lt;span style=&quot;color:#569cd6;&quot;&gt;public int &lt;/span&gt;&lt;span style=&quot;color:#dcdcaa;&quot;&gt;sumValues&lt;/span&gt;() {&lt;br&gt;        &lt;span style=&quot;color:#569cd6;&quot;&gt;int &lt;/span&gt;&lt;span style=&quot;color:#94dbfd;&quot;&gt;x &lt;/span&gt;= &lt;span style=&quot;color:#9cdcfe;&quot;&gt;classB&lt;/span&gt;.&lt;span style=&quot;color:#dbdbaa;&quot;&gt;getX&lt;/span&gt;();&lt;br&gt;        &lt;span style=&quot;color:#c586c0;&quot;&gt;return &lt;/span&gt;&lt;span style=&quot;color:#569cd6;&quot;&gt;this&lt;/span&gt;.&lt;span style=&quot;color:#9cdcfe;&quot;&gt;y &lt;/span&gt;+ &lt;span style=&quot;color:#94dbfd;&quot;&gt;x&lt;/span&gt;;&lt;br&gt;    }&lt;br&gt;}&lt;br&gt;&lt;/pre&gt;&lt;/div&gt;" link="&lt;div style=&quot;background-color:#1e1e1e;color:#d4d4d4&quot;&gt;&lt;pre style=&quot;font-family:&#39;JetBrains Mono&#39;,monospace;font-size:9.8pt;&quot;&gt;&lt;span style=&quot;color:#569cd6;&quot;&gt;package &lt;/span&gt;&lt;span style=&quot;color:#4ec9b0;&quot;&gt;com.example.models&lt;/span&gt;;&lt;br&gt;&lt;br&gt;&lt;span style=&quot;color:#569cd6;&quot;&gt;public class &lt;/span&gt;&lt;span style=&quot;color:#4ec9b0;&quot;&gt;ClassA &lt;/span&gt;{&lt;br&gt;    &lt;span style=&quot;color:#569cd6;&quot;&gt;private &lt;/span&gt;&lt;span style=&quot;color:#4ec9b0;&quot;&gt;ClassB &lt;/span&gt;&lt;span style=&quot;color:#9cdcfe;&quot;&gt;classB&lt;/span&gt;;&lt;br&gt;    &lt;span style=&quot;color:#569cd6;&quot;&gt;private int &lt;/span&gt;&lt;span style=&quot;color:#9cdcfe;&quot;&gt;y &lt;/span&gt;= &lt;span style=&quot;color:#b4cda8;&quot;&gt;5&lt;/span&gt;;&lt;br&gt;&lt;br&gt;    &lt;span style=&quot;color:#569cd6;&quot;&gt;public &lt;/span&gt;&lt;span style=&quot;color:#dcdcaa;&quot;&gt;ClassA&lt;/span&gt;(&lt;span style=&quot;color:#4ec9b0;&quot;&gt;ClassB &lt;/span&gt;&lt;span style=&quot;color:#94dbfd;&quot;&gt;classB&lt;/span&gt;) {&lt;br&gt;        &lt;span style=&quot;color:#569cd6;&quot;&gt;this&lt;/span&gt;.&lt;span style=&quot;color:#9cdcfe;&quot;&gt;classB &lt;/span&gt;= &lt;span style=&quot;color:#94dbfd;&quot;&gt;classB&lt;/span&gt;;&lt;br&gt;    }&lt;br&gt;&lt;br&gt;    &lt;span style=&quot;color:#569cd6;&quot;&gt;public int &lt;/span&gt;&lt;span style=&quot;color:#dcdcaa;&quot;&gt;sumValues&lt;/span&gt;() {&lt;br&gt;        &lt;span style=&quot;color:#569cd6;&quot;&gt;int &lt;/span&gt;&lt;span style=&quot;color:#94dbfd;&quot;&gt;x &lt;/span&gt;= &lt;span style=&quot;color:#9cdcfe;&quot;&gt;classB&lt;/span&gt;.&lt;span style=&quot;color:#dbdbaa;&quot;&gt;getX&lt;/span&gt;();&lt;br&gt;        &lt;span style=&quot;color:#c586c0;&quot;&gt;return &lt;/span&gt;&lt;span style=&quot;color:#569cd6;&quot;&gt;this&lt;/span&gt;.&lt;span style=&quot;color:#9cdcfe;&quot;&gt;y &lt;/span&gt;+ &lt;span style=&quot;color:#94dbfd;&quot;&gt;x&lt;/span&gt;;&lt;br&gt;    }&lt;br&gt;}&lt;br&gt;&lt;/pre&gt;&lt;/div&gt;" id="kbqDJfVuW1tMjwY6HwHi-3">
          <mxCell style="text;whiteSpace=wrap;html=1;" vertex="1" parent="1">
            <mxGeometry x="-260" y="270" width="270" height="260" as="geometry" />
          </mxCell>
        </UserObject>
        <mxCell id="kbqDJfVuW1tMjwY6HwHi-6" value="&amp;nbsp;Dependency&amp;nbsp;" style="edgeStyle=orthogonalEdgeStyle;rounded=0;orthogonalLoop=1;jettySize=auto;html=1;fontStyle=1;fontSize=13;" edge="1" parent="1" source="kbqDJfVuW1tMjwY6HwHi-4" target="kbqDJfVuW1tMjwY6HwHi-3">
          <mxGeometry relative="1" as="geometry" />
        </mxCell>
        <mxCell id="kbqDJfVuW1tMjwY6HwHi-8" value="@Mock" style="edgeStyle=orthogonalEdgeStyle;rounded=0;orthogonalLoop=1;jettySize=auto;html=1;fontStyle=1;fontSize=13;" edge="1" parent="1" source="kbqDJfVuW1tMjwY6HwHi-4" target="kbqDJfVuW1tMjwY6HwHi-5">
          <mxGeometry relative="1" as="geometry" />
        </mxCell>
        <UserObject label="&lt;div style=&quot;background-color:#1e1e1e;color:#d4d4d4&quot;&gt;&lt;pre style=&quot;font-family:&#39;JetBrains Mono&#39;,monospace;font-size:9.8pt;&quot;&gt;&lt;span style=&quot;color:#569cd6;&quot;&gt;package &lt;/span&gt;&lt;span style=&quot;color:#4ec9b0;&quot;&gt;com.example.models&lt;/span&gt;;&lt;br&gt;&lt;br&gt;&lt;span style=&quot;color:#569cd6;&quot;&gt;public class &lt;/span&gt;&lt;span style=&quot;color:#4ec9b0;&quot;&gt;ClassB &lt;/span&gt;{&lt;br&gt;    &lt;span style=&quot;color:#569cd6;&quot;&gt;private int &lt;/span&gt;&lt;span style=&quot;color:#9cdcfe;&quot;&gt;x &lt;/span&gt;= &lt;span style=&quot;color:#b4cda8;&quot;&gt;10&lt;/span&gt;;&lt;br&gt;&lt;br&gt;    &lt;span style=&quot;color:#569cd6;&quot;&gt;public &lt;/span&gt;&lt;span style=&quot;color:#dcdcaa;&quot;&gt;ClassB&lt;/span&gt;() {&lt;br&gt;&lt;br&gt;    }&lt;br&gt;&lt;br&gt;    &lt;span style=&quot;color:#569cd6;&quot;&gt;public int &lt;/span&gt;&lt;span style=&quot;color:#dcdcaa;&quot;&gt;getX&lt;/span&gt;() {&lt;br&gt;        &lt;span style=&quot;color:#c586c0;&quot;&gt;return &lt;/span&gt;&lt;span style=&quot;color:#569cd6;&quot;&gt;this&lt;/span&gt;.&lt;span style=&quot;color:#9cdcfe;&quot;&gt;x&lt;/span&gt;;&lt;br&gt;    }&lt;br&gt;}&lt;br&gt;&lt;/pre&gt;&lt;/div&gt;" link="&lt;div style=&quot;background-color:#1e1e1e;color:#d4d4d4&quot;&gt;&lt;pre style=&quot;font-family:&#39;JetBrains Mono&#39;,monospace;font-size:9.8pt;&quot;&gt;&lt;span style=&quot;color:#569cd6;&quot;&gt;package &lt;/span&gt;&lt;span style=&quot;color:#4ec9b0;&quot;&gt;com.example.models&lt;/span&gt;;&lt;br&gt;&lt;br&gt;&lt;span style=&quot;color:#569cd6;&quot;&gt;public class &lt;/span&gt;&lt;span style=&quot;color:#4ec9b0;&quot;&gt;ClassB &lt;/span&gt;{&lt;br&gt;    &lt;span style=&quot;color:#569cd6;&quot;&gt;private int &lt;/span&gt;&lt;span style=&quot;color:#9cdcfe;&quot;&gt;x &lt;/span&gt;= &lt;span style=&quot;color:#b4cda8;&quot;&gt;10&lt;/span&gt;;&lt;br&gt;&lt;br&gt;    &lt;span style=&quot;color:#569cd6;&quot;&gt;public &lt;/span&gt;&lt;span style=&quot;color:#dcdcaa;&quot;&gt;ClassB&lt;/span&gt;() {&lt;br&gt;&lt;br&gt;    }&lt;br&gt;&lt;br&gt;    &lt;span style=&quot;color:#569cd6;&quot;&gt;public int &lt;/span&gt;&lt;span style=&quot;color:#dcdcaa;&quot;&gt;getX&lt;/span&gt;() {&lt;br&gt;        &lt;span style=&quot;color:#c586c0;&quot;&gt;return &lt;/span&gt;&lt;span style=&quot;color:#569cd6;&quot;&gt;this&lt;/span&gt;.&lt;span style=&quot;color:#9cdcfe;&quot;&gt;x&lt;/span&gt;;&lt;br&gt;    }&lt;br&gt;}&lt;br&gt;&lt;/pre&gt;&lt;/div&gt;" id="kbqDJfVuW1tMjwY6HwHi-4">
          <mxCell style="text;whiteSpace=wrap;html=1;" vertex="1" parent="1">
            <mxGeometry x="200" y="275" width="250" height="250" as="geometry" />
          </mxCell>
        </UserObject>
        <mxCell id="kbqDJfVuW1tMjwY6HwHi-5" value="&lt;div style=&quot;background-color:#1e1e1e;color:#d4d4d4&quot;&gt;&lt;pre style=&quot;font-family:&#39;JetBrains Mono&#39;,monospace;font-size:9.8pt;&quot;&gt;&lt;span style=&quot;color:#4ec9b0;&quot;&gt;@ExtendWith&lt;/span&gt;(&lt;span style=&quot;color:#4ec9b0;&quot;&gt;MockitoExtension&lt;/span&gt;.&lt;span style=&quot;color:#569cd6;&quot;&gt;class&lt;/span&gt;)&lt;br&gt;&lt;span style=&quot;color:#569cd6;&quot;&gt;public class &lt;/span&gt;&lt;span style=&quot;color:#4ec9b0;&quot;&gt;ClassATest &lt;/span&gt;{&lt;br&gt;    &lt;span style=&quot;color:#4ec9b0;&quot;&gt;@InjectMocks&lt;br&gt;&lt;/span&gt;&lt;span style=&quot;color:#4ec9b0;&quot;&gt;    ClassA &lt;/span&gt;&lt;span style=&quot;color:#9cdcfe;&quot;&gt;classA&lt;/span&gt;;&lt;br&gt;&lt;br&gt;    &lt;span style=&quot;color:#4ec9b0;&quot;&gt;@Mock&lt;br&gt;&lt;/span&gt;&lt;span style=&quot;color:#4ec9b0;&quot;&gt;    ClassB &lt;/span&gt;&lt;span style=&quot;color:#9cdcfe;&quot;&gt;classB&lt;/span&gt;;&lt;br&gt;&lt;br&gt;    &lt;span style=&quot;color:#4ec9b0;&quot;&gt;@BeforeEach&lt;br&gt;&lt;/span&gt;&lt;span style=&quot;color:#4ec9b0;&quot;&gt;    &lt;/span&gt;&lt;span style=&quot;color:#569cd6;&quot;&gt;void &lt;/span&gt;&lt;span style=&quot;color:#dcdcaa;&quot;&gt;setUp&lt;/span&gt;() {&lt;br&gt;&lt;br&gt;    }&lt;br&gt;&lt;br&gt;    &lt;span style=&quot;color:#4ec9b0;&quot;&gt;@Test&lt;br&gt;&lt;/span&gt;&lt;span style=&quot;color:#4ec9b0;&quot;&gt;    &lt;/span&gt;&lt;span style=&quot;color:#569cd6;&quot;&gt;void &lt;/span&gt;&lt;span style=&quot;color:#dcdcaa;&quot;&gt;sumTwoValuesTest&lt;/span&gt;() {&lt;br&gt;        &lt;span style=&quot;color:#4ec9b0;&quot;&gt;Mockito&lt;/span&gt;.&lt;span style=&quot;color:#ffc66d;font-style:italic;&quot;&gt;when&lt;/span&gt;(&lt;span style=&quot;color:#9cdcfe;&quot;&gt;classB&lt;/span&gt;.&lt;span style=&quot;color:#dbdbaa;&quot;&gt;getX&lt;/span&gt;()).&lt;span style=&quot;color:#dbdbaa;&quot;&gt;thenReturn&lt;/span&gt;(&lt;span style=&quot;color:#b4cda8;&quot;&gt;20&lt;/span&gt;);&lt;br&gt;&lt;br&gt;        &lt;span style=&quot;color:#4ec9b0;&quot;&gt;Assertions&lt;/span&gt;.&lt;span style=&quot;color:#ffc66d;font-style:italic;&quot;&gt;assertEquals&lt;/span&gt;(&lt;span style=&quot;color:#b4cda8;&quot;&gt;25&lt;/span&gt;, &lt;span style=&quot;color:#9cdcfe;&quot;&gt;classA&lt;/span&gt;.&lt;span style=&quot;color:#dbdbaa;&quot;&gt;sumValues&lt;/span&gt;());&lt;br&gt;    }&lt;br&gt;}&lt;/pre&gt;&lt;/div&gt;" style="text;whiteSpace=wrap;html=1;" vertex="1" parent="1">
          <mxGeometry x="90" y="630" width="470" height="360" as="geometry" />
        </mxCell>
      </root>
    </mxGraphModel>
  </diagram>
</mxfile>
